<?xml version="1.0" standalone="no"?>
<!DOCTYPE svg PUBLIC "-//W3C//DTD SVG 20010904//EN"
 "http://www.w3.org/TR/2001/REC-SVG-20010904/DTD/svg10.dtd">
<svg version="1.0" xmlns="http://www.w3.org/2000/svg"
 width="980.000000pt" height="980.000000pt" viewBox="0 0 980.000000 980.000000"
 preserveAspectRatio="xMidYMid meet">
<metadata>
Created by potrace 1.11, written by Peter Selinger 2001-2013
</metadata>
<g transform="translate(0.000000,980.000000) scale(0.100000,-0.100000)"
fill="#000000" stroke="none">
<path d="M1589 9789 c-461 -4 -817 -12 -863 -18 -238 -33 -497 -232 -620 -476
-65 -129 -77 -177 -88 -345 -14 -241 -22 -4895 -9 -5616 12 -674 11 -662 81
-812 117 -248 338 -434 606 -508 64 -17 569 -32 1150 -33 l292 -1 5 -837 c5
-865 7 -926 47 -1002 24 -49 101 -108 164 -126 69 -21 163 -19 203 2 74 41
262 222 1114 1070 l895 893 1390 1 c1668 1 2985 13 3102 29 109 15 173 37 265
90 187 107 373 323 427 498 45 146 45 114 45 3347 0 2285 -3 3075 -12 3121
-51 269 -260 526 -527 649 -141 66 -123 64 -1028 75 -945 11 -5470 10 -6639
-1z m7448 -658 c27 -21 68 -61 91 -88 l42 -51 0 -3097 0 -3098 -40 -52 c-64
-83 -107 -107 -203 -117 -45 -4 -1101 -11 -2347 -14 l-2265 -6 -777 -776 -778
-777 0 771 0 771 -67 6 c-38 4 -372 7 -743 7 -724 1 -1107 11 -1155 29 -36 15
-111 85 -132 125 -29 55 -33 564 -31 3413 l3 2801 40 58 c22 32 59 72 83 89
41 28 51 30 160 36 64 3 1906 6 4094 7 l3976 2 49 -39z"/>
<path d="M2991 7950 c-33 -5 -69 -19 -95 -37 -53 -37 -111 -115 -126 -168 -9
-31 -11 -184 -8 -566 4 -578 3 -567 69 -649 52 -64 91 -80 237 -92 163 -13
659 -5 727 13 39 10 62 25 102 65 28 29 57 70 65 91 10 30 13 153 13 588 0
608 3 579 -65 665 -49 62 -100 80 -248 91 -154 10 -596 10 -671 -1z"/>
<path d="M6054 7950 c-88 -13 -168 -81 -213 -180 -20 -43 -21 -64 -20 -490 0
-245 4 -496 8 -558 8 -109 10 -115 46 -168 59 -85 98 -103 252 -116 74 -6 245
-8 408 -5 333 7 361 12 426 85 77 87 74 57 77 624 4 595 1 626 -58 705 -58 76
-99 93 -259 104 -151 10 -595 10 -667 -1z"/>
<path d="M2805 4703 l-40 -47 -9 -187 c-5 -110 -5 -263 0 -373 l9 -185 45 -46
44 -45 2051 0 2051 0 31 33 c59 62 58 56 61 400 4 367 -1 403 -55 460 l-37 37
-2056 0 -2055 -1 -40 -46z"/>
</g>
</svg>
