<?xml version="1.0" standalone="no"?>
<!DOCTYPE svg PUBLIC "-//W3C//DTD SVG 20010904//EN"
 "http://www.w3.org/TR/2001/REC-SVG-20010904/DTD/svg10.dtd">
<svg version="1.0" xmlns="http://www.w3.org/2000/svg"
 width="928.000000pt" height="928.000000pt" viewBox="0 0 928.000000 928.000000"
 preserveAspectRatio="xMidYMid meet">
<metadata>
Created by potrace 1.11, written by Peter Selinger 2001-2013
</metadata>
<g transform="translate(0.000000,928.000000) scale(0.100000,-0.100000)"
fill="#000000" stroke="none">
<path d="M2849 9276 c-2 -2 -38 -7 -79 -11 -80 -8 -79 -8 -155 -20 -77 -12
-81 -13 -189 -41 -55 -14 -108 -27 -116 -29 -8 -2 -27 -8 -42 -14 -16 -6 -28
-8 -28 -5 0 4 -6 2 -12 -3 -7 -5 -60 -27 -118 -48 -58 -21 -107 -42 -110 -46
-3 -4 -19 -11 -35 -15 -17 -4 -32 -10 -35 -14 -3 -4 -30 -19 -60 -33 -30 -15
-80 -41 -110 -59 -30 -18 -70 -42 -89 -53 -49 -29 -258 -186 -315 -236 -169
-150 -347 -354 -456 -524 -24 -39 -47 -72 -50 -75 -12 -11 -170 -323 -175
-344 -1 -6 -7 -24 -14 -41 -38 -95 -84 -234 -95 -285 -3 -14 -12 -52 -20 -85
-8 -33 -17 -73 -20 -90 -3 -16 -7 -41 -10 -55 -8 -39 -16 -100 -24 -165 -9
-79 -9 -4638 0 -4690 4 -22 10 -60 12 -85 3 -25 8 -56 11 -70 3 -14 8 -41 11
-60 8 -45 63 -270 71 -290 3 -8 7 -19 8 -25 5 -18 47 -130 61 -162 8 -17 14
-34 14 -38 0 -4 30 -66 66 -138 37 -73 72 -142 78 -154 6 -13 14 -23 19 -23 4
0 7 -5 7 -11 0 -11 126 -200 157 -234 10 -12 34 -41 53 -65 39 -52 68 -83 165
-183 285 -292 657 -517 1060 -642 138 -42 139 -42 184 -50 19 -3 37 -7 40 -9
3 -2 22 -7 41 -10 19 -3 46 -8 60 -11 14 -3 48 -8 76 -10 28 -3 62 -9 75 -12
13 -4 1250 -9 2749 -10 2950 -3 2769 -6 2900 49 30 13 74 36 97 51 54 34 193
173 193 192 0 2 10 21 22 42 12 20 24 42 25 48 1 5 13 37 25 70 l23 60 0 3200
c0 1760 -3 3229 -8 3265 -17 147 -45 300 -72 393 -8 26 -11 47 -7 47 3 0 1 5
-6 12 -7 7 -12 19 -12 27 0 13 -54 168 -77 221 -3 8 -7 17 -8 20 -10 30 -101
217 -144 295 -111 204 -367 512 -552 665 -30 25 -56 47 -59 50 -15 17 -138
106 -225 162 -153 100 -449 246 -476 235 -3 -1 -12 3 -20 9 -16 13 -93 40 -95
33 0 -2 -7 1 -15 7 -8 7 -61 24 -119 39 -104 26 -116 29 -175 39 -16 3 -41 7
-55 10 -14 2 -47 8 -75 11 -27 4 -61 9 -75 13 -27 6 -3664 14 -3671 8z"/>
</g>
</svg>
